<svg width="296" height="446" viewBox="0 0 296 446" fill="none" xmlns="http://www.w3.org/2000/svg">
<g clip-path="url(#clip0_2_20)">
<g clip-path="url(#clip1_2_20)">
<path d="M242.958 151.607C307.757 212.859 330.609 303.03 202.803 382.721C220.788 358.373 230.739 334.33 232.923 310.244C237.621 258.285 205.224 216.011 169.507 178.065C117.153 122.441 113.26 68.7832 157.248 9.20612C148.182 87.5634 197.699 108.824 242.958 151.607ZM102.281 438.736C132.835 374.243 138.231 338.426 61.7808 266.107C41.0094 246.457 24.9664 226.436 13.8049 206.391C-0.429718 238.186 -11.7097 305.609 29.8331 344.415C57.9319 370.661 96.5349 386.407 102.281 438.736ZM158.711 188.224C116.585 143.459 86.0306 80.7055 145.326 0.401489C-15.2672 63.111 -24.5165 164.068 71.959 255.336C153.246 332.221 149.032 374.673 115.681 445.08C273.171 328.969 218.001 251.22 158.711 188.224Z" fill="#0C3F4B"/>
</g>
</g>
<defs>
<clipPath id="clip0_2_20">
<rect width="294.39" height="444.678" fill="white" transform="translate(0.864075 0.401489)"/>
</clipPath>
<clipPath id="clip1_2_20">
<rect width="294.39" height="444.678" fill="white" transform="translate(0.864075 0.401489)"/>
</clipPath>
</defs>
</svg>
