<svg xmlns="http://www.w3.org/2000/svg" version="1.1" xmlns:xlink="http://www.w3.org/1999/xlink" xmlns:svgjs="http://svgjs.dev/svgjs" width="1000" height="656" viewBox="0 0 1000 656"><g transform="matrix(1,0,0,1,-0.5586778730425976,-0.02493344686911314)"><svg viewBox="0 0 405 266" data-background-color="#ff5858" preserveAspectRatio="xMidYMid meet" height="656" width="1000" xmlns="http://www.w3.org/2000/svg" xmlns:xlink="http://www.w3.org/1999/xlink"><g id="tight-bounds" transform="matrix(1,0,0,1,9.253728756091505,3.011298140357269)"><svg viewBox="0 0 395.52 180.3116914917519" height="180.3116914917519" width="395.52"><g><svg viewBox="0 0 601.9343837872993 274.41294222222217" height="180.3116914917519" width="395.52"><g transform="matrix(1,0,0,1,206.41438378729933,84.7975822222222)"><svg viewBox="0 0 395.52 104.81777777777776" height="104.81777777777776" width="395.52"><g id="textblocktransform"><svg viewBox="0 0 395.52 104.81777777777776" height="104.81777777777776" width="395.52" id="textblock"><g><svg viewBox="0 0 395.52 104.81777777777776" height="104.81777777777776" width="395.52"><g transform="matrix(1,0,0,1,0,0)"><svg width="395.52" viewBox="2.700000047683716 -36.54999923706055 140.08999633789062 36.849998474121094" height="104.81777777777776" data-palette-color="#0c3f4b"><g class="wordmark-text-0" data-fill-palette-color="primary" id="text-0"><path d="M6.6 0L6.6 0Q5.15 0 3.93-0.6 2.7-1.2 2.7-2.4L2.7-2.4 2.7-34.15Q2.7-35.35 3.78-35.95 4.85-36.55 6.1-36.55L6.1-36.55 23.45-36.55Q24.7-36.55 25.25-35.48 25.8-34.4 25.8-33.2L25.8-33.2Q25.8-31.8 25.2-30.78 24.6-29.75 23.45-29.75L23.45-29.75 10.5-29.75 10.5-21.3 18.05-21.3Q19.2-21.3 19.8-20.38 20.4-19.45 20.4-18.25L20.4-18.25Q20.4-17.25 19.85-16.28 19.3-15.3 18.05-15.3L18.05-15.3 10.5-15.3 10.5-2.4Q10.5-1.2 9.28-0.6 8.05 0 6.6 0ZM40.3 0.3L40.3 0.3Q36.85 0.3 34.07-0.85 31.3-2 29.67-4.6 28.05-7.2 28.05-11.5L28.05-11.5 28.05-24.75Q28.05-29.05 29.67-31.65 31.3-34.25 34.07-35.4 36.85-36.55 40.3-36.55L40.3-36.55Q43.75-36.55 46.55-35.4 49.35-34.25 50.97-31.65 52.6-29.05 52.6-24.75L52.6-24.75 52.6-11.5Q52.6-7.2 50.97-4.6 49.35-2 46.55-0.85 43.75 0.3 40.3 0.3ZM40.3-6.5L40.3-6.5Q42.4-6.5 43.6-7.7 44.8-8.9 44.8-11.5L44.8-11.5 44.8-24.75Q44.8-27.35 43.6-28.55 42.4-29.75 40.3-29.75L40.3-29.75Q38.2-29.75 37.02-28.55 35.85-27.35 35.85-24.75L35.85-24.75 35.85-11.5Q35.85-8.9 37.02-7.7 38.2-6.5 40.3-6.5ZM69.45 0.3L69.45 0.3Q66 0.3 63.22-0.85 60.45-2 58.82-4.6 57.2-7.2 57.2-11.5L57.2-11.5 57.2-24.75Q57.2-29.05 58.82-31.65 60.45-34.25 63.22-35.4 66-36.55 69.45-36.55L69.45-36.55Q72.9-36.55 75.7-35.4 78.5-34.25 80.12-31.65 81.75-29.05 81.75-24.75L81.75-24.75 81.75-11.5Q81.75-7.2 80.12-4.6 78.5-2 75.7-0.85 72.9 0.3 69.45 0.3ZM69.45-6.5L69.45-6.5Q71.55-6.5 72.75-7.7 73.95-8.9 73.95-11.5L73.95-11.5 73.95-24.75Q73.95-27.35 72.75-28.55 71.55-29.75 69.45-29.75L69.45-29.75Q67.34-29.75 66.17-28.55 65-27.35 65-24.75L65-24.75 65-11.5Q65-8.9 66.17-7.7 67.34-6.5 69.45-6.5ZM98.99 0L90.14 0Q88.59 0 87.67-0.7 86.74-1.4 86.74-2.35L86.74-2.35 86.74-34.2Q86.74-35.15 87.67-35.85 88.59-36.55 90.14-36.55L90.14-36.55 98.99-36.55Q102.44-36.55 105.24-35.4 108.04-34.25 109.67-31.65 111.29-29.05 111.29-24.75L111.29-24.75 111.29-11.8Q111.29-7.5 109.67-4.9 108.04-2.3 105.24-1.15 102.44 0 98.99 0L98.99 0ZM94.54-29.75L94.54-6.8 98.99-6.8Q101.09-6.8 102.29-8.03 103.49-9.25 103.49-11.8L103.49-11.8 103.49-24.75Q103.49-27.3 102.29-28.53 101.09-29.75 98.99-29.75L98.99-29.75 94.54-29.75ZM128.29 0L128.29 0Q126.84 0 125.62-0.6 124.39-1.2 124.39-2.4L124.39-2.4 124.39-14.95Q124.39-15.35 124.19-15.65L124.19-15.65 113.84-32.8Q113.79-32.95 113.77-33.1 113.74-33.25 113.74-33.35L113.74-33.35Q113.74-34.3 114.62-35 115.49-35.7 116.74-36.13 117.99-36.55 119.04-36.55L119.04-36.55Q119.99-36.55 120.44-36.18 120.89-35.8 121.29-35.1L121.29-35.1 128.29-22.25 135.24-35.1Q135.64-35.8 136.09-36.18 136.54-36.55 137.49-36.55L137.49-36.55Q138.59-36.55 139.81-36.13 141.04-35.7 141.92-35 142.79-34.3 142.79-33.35L142.79-33.35Q142.79-33.25 142.79-33.1 142.79-32.95 142.69-32.8L142.69-32.8 132.39-15.65Q132.19-15.35 132.19-14.95L132.19-14.95 132.19-2.4Q132.19-1.2 130.97-0.6 129.74 0 128.29 0Z" fill="#0c3f4b" data-fill-palette-color="primary"></path></g></svg></g></svg></g></svg></g></svg></g><g><svg viewBox="0 0 181.66942208063267 274.41294222222217" height="274.41294222222217" width="181.66942208063267"><g><svg xmlns="http://www.w3.org/2000/svg" xmlns:xlink="http://www.w3.org/1999/xlink" version="1.1" x="0" y="0" viewBox="24.761856079101562 5 59.5826416015625 90" enable-background="new 0 0 100 100" xml:space="preserve" height="274.41294222222217" width="181.66942208063267" class="icon-icon-0" data-fill-palette-color="accent" id="icon-0"><g fill="#0c3f4b" data-fill-palette-color="accent"><path d="M73.76 35.603C86.875 48 91.5 66.25 65.633 82.379c3.64-4.928 5.654-9.794 6.096-14.669 0.951-10.516-5.606-19.072-12.835-26.752C48.298 29.7 47.51 18.84 56.413 6.782 54.578 22.641 64.6 26.944 73.76 35.603zM45.288 93.716c6.184-13.053 7.276-20.302-8.197-34.939-4.204-3.977-7.451-8.029-9.71-12.086-2.881 6.435-5.164 20.081 3.244 27.935C36.312 79.938 44.125 83.125 45.288 93.716zM56.709 43.014C48.183 33.954 41.999 21.253 54 5 21.497 17.692 19.625 38.125 39.151 56.597 55.603 72.158 54.75 80.75 48 95 79.875 71.5 68.709 55.764 56.709 43.014z" fill="#0c3f4b" data-fill-palette-color="accent"></path></g><g display="none" fill="#0c3f4b" data-fill-palette-color="accent"><path display="inline" d="M54 5C16.75 17.5 14.875 56.5 26.75 70.762c10.558 12.68 15.407 7.949 19.675 20.824" fill="#0c3f4b" data-fill-palette-color="accent"></path><line display="inline" x1="56.988" y1="5.261" x2="45.528" y2="136.262" fill="#0c3f4b" data-fill-palette-color="accent"></line><line display="inline" x1="54.131" y1="3.502" x2="42.67" y2="134.502" fill="#0c3f4b" data-fill-palette-color="accent"></line><path display="inline" d="M42.875 76" fill="#0c3f4b" data-fill-palette-color="accent"></path></g></svg></g></svg></g></svg></g><defs></defs></svg><rect width="395.52" height="180.3116914917519" fill="none" stroke="none" visibility="hidden"></rect></g></svg></g></svg>