<svg width="976" height="446" viewBox="0 0 976 446" fill="none" xmlns="http://www.w3.org/2000/svg">
<g clip-path="url(#clip0_2_9)">
<g clip-path="url(#clip1_2_9)">
<g clip-path="url(#clip2_2_9)">
<g clip-path="url(#clip3_2_9)">
<g clip-path="url(#clip4_2_9)">
<path d="M353.196 305.665C348.773 305.665 344.701 304.75 340.98 302.92C337.229 301.09 335.353 298.345 335.353 294.685V149.424C335.353 145.764 337 143.019 340.294 141.189C343.557 139.359 347.096 138.444 350.908 138.444H430.287C434.099 138.444 436.844 140.076 438.522 143.339C440.199 146.634 441.038 150.111 441.038 153.771C441.038 158.041 440.123 161.731 438.293 164.843C436.463 167.984 433.794 169.555 430.287 169.555H371.039V208.215H405.581C409.088 208.215 411.757 209.618 413.587 212.424C415.417 215.26 416.332 218.509 416.332 222.169C416.332 225.219 415.494 228.223 413.816 231.182C412.139 234.171 409.393 235.665 405.581 235.665H371.039V294.685C371.039 298.345 369.178 301.09 365.457 302.92C361.705 304.75 357.618 305.665 353.196 305.665ZM507.377 307.037C496.855 307.037 487.354 305.284 478.874 301.776C470.426 298.268 463.715 292.55 458.744 284.619C453.803 276.689 451.332 266.166 451.332 253.051V192.431C451.332 179.315 453.803 168.792 458.744 160.862C463.715 152.932 470.426 147.213 478.874 143.705C487.354 140.198 496.855 138.444 507.377 138.444C517.9 138.444 527.432 140.198 535.972 143.705C544.512 147.213 551.253 152.932 556.194 160.862C561.166 168.792 563.651 179.315 563.651 192.431V253.051C563.651 266.166 561.166 276.689 556.194 284.619C551.253 292.55 544.512 298.268 535.972 301.776C527.432 305.284 517.9 307.037 507.377 307.037ZM507.377 275.927C513.783 275.927 518.815 274.097 522.475 270.436C526.135 266.776 527.965 260.981 527.965 253.051V192.431C527.965 184.5 526.135 178.705 522.475 175.045C518.815 171.385 513.783 169.555 507.377 169.555C500.972 169.555 495.97 171.385 492.371 175.045C488.802 178.705 487.018 184.5 487.018 192.431V253.051C487.018 260.981 488.802 266.776 492.371 270.436C495.97 274.097 500.972 275.927 507.377 275.927ZM640.742 307.037C630.219 307.037 620.718 305.284 612.239 301.776C603.79 298.268 597.08 292.55 592.109 284.619C587.168 276.689 584.697 266.166 584.697 253.051V192.431C584.697 179.315 587.168 168.792 592.109 160.862C597.08 152.932 603.79 147.213 612.239 143.705C620.718 140.198 630.219 138.444 640.742 138.444C651.265 138.444 660.796 140.198 669.337 143.705C677.877 147.213 684.618 152.932 689.559 160.862C694.53 168.792 697.016 179.315 697.016 192.431V253.051C697.016 266.166 694.53 276.689 689.559 284.619C684.618 292.55 677.877 298.268 669.337 301.776C660.796 305.284 651.265 307.037 640.742 307.037ZM640.742 275.927C647.147 275.927 652.18 274.097 655.84 270.436C659.5 266.776 661.33 260.981 661.33 253.051V192.431C661.33 184.5 659.5 178.705 655.84 175.045C652.18 171.385 647.147 169.555 640.742 169.555C634.307 169.555 629.304 171.385 625.736 175.045C622.167 178.705 620.383 184.5 620.383 192.431V253.051C620.383 260.981 622.167 266.776 625.736 270.436C629.304 274.097 634.307 275.927 640.742 275.927ZM775.891 305.665H735.402C730.674 305.665 726.907 304.597 724.101 302.462C721.264 300.327 719.846 297.811 719.846 294.913V149.196C719.846 146.298 721.264 143.782 724.101 141.647C726.907 139.512 730.674 138.444 735.402 138.444H775.891C786.414 138.444 795.946 140.198 804.486 143.705C813.026 147.213 819.782 152.932 824.754 160.862C829.695 168.792 832.165 179.315 832.165 192.431V251.678C832.165 264.794 829.695 275.317 824.754 283.247C819.782 291.177 813.026 296.896 804.486 300.403C795.946 303.911 786.414 305.665 775.891 305.665ZM755.532 169.555V274.554H775.891C782.297 274.554 787.329 272.678 790.989 268.927C794.649 265.206 796.479 259.456 796.479 251.678V192.431C796.479 184.653 794.649 178.888 790.989 175.137C787.329 171.415 782.297 169.555 775.891 169.555H755.532ZM909.942 305.665C905.52 305.665 901.448 304.75 897.727 302.92C893.975 301.09 892.099 298.345 892.099 294.685V237.267C892.099 236.047 891.794 234.979 891.184 234.064L843.832 155.601C843.679 155.143 843.573 154.686 843.512 154.228C843.42 153.771 843.374 153.389 843.374 153.084C843.374 150.187 844.716 147.671 847.401 145.536C850.054 143.4 853.287 141.677 857.1 140.366C860.912 139.085 864.42 138.444 867.623 138.444C870.52 138.444 872.655 139.008 874.028 140.137C875.4 141.296 876.697 142.943 877.917 145.078L909.942 203.868L941.74 145.078C942.96 142.943 944.256 141.296 945.628 140.137C947.001 139.008 949.136 138.444 952.034 138.444C955.389 138.444 958.927 139.085 962.648 140.366C966.399 141.677 969.617 143.4 972.301 145.536C974.955 147.671 976.282 150.187 976.282 153.084C976.282 153.389 976.282 153.771 976.282 154.228C976.282 154.686 976.129 155.143 975.824 155.601L928.7 234.064C928.09 234.979 927.785 236.047 927.785 237.267V294.685C927.785 298.345 925.925 301.09 922.204 302.92C918.452 304.75 914.365 305.665 909.942 305.665Z" fill="#0C3F4B"/>
</g>
</g>
</g>
</g>
<g clip-path="url(#clip5_2_9)">
<g clip-path="url(#clip6_2_9)">
<path d="M242.958 151.607C307.757 212.859 330.609 303.03 202.803 382.721C220.788 358.373 230.739 334.33 232.923 310.244C237.621 258.285 205.224 216.011 169.507 178.065C117.153 122.441 113.26 68.7832 157.248 9.20612C148.182 87.5634 197.699 108.824 242.958 151.607ZM102.281 438.736C132.835 374.243 138.231 338.426 61.7808 266.107C41.0094 246.457 24.9664 226.436 13.8049 206.391C-0.429718 238.186 -11.7097 305.609 29.8331 344.415C57.9319 370.661 96.5349 386.407 102.281 438.736ZM158.711 188.224C116.585 143.459 86.0306 80.7055 145.326 0.401489C-15.2672 63.111 -24.5165 164.068 71.959 255.336C153.246 332.221 149.032 374.673 115.681 445.08C273.171 328.969 218.001 251.22 158.711 188.224Z" fill="#0C3F4B"/>
</g>
</g>
</g>
<defs>
<clipPath id="clip0_2_9">
<rect width="975.418" height="444.678" fill="white" transform="translate(0.864075 0.401489)"/>
</clipPath>
<clipPath id="clip1_2_9">
<rect width="640.929" height="169.854" fill="white" transform="translate(335.353 137.814)"/>
</clipPath>
<clipPath id="clip2_2_9">
<rect width="640.929" height="169.854" fill="white" transform="translate(335.353 137.814)"/>
</clipPath>
<clipPath id="clip3_2_9">
<rect width="640.929" height="169.854" fill="white" transform="translate(335.353 137.814)"/>
</clipPath>
<clipPath id="clip4_2_9">
<rect width="640.929" height="169.854" fill="white" transform="translate(335.353 137.814)"/>
</clipPath>
<clipPath id="clip5_2_9">
<rect width="294.39" height="444.678" fill="white" transform="translate(0.864075 0.401489)"/>
</clipPath>
<clipPath id="clip6_2_9">
<rect width="294.39" height="444.678" fill="white" transform="translate(0.864075 0.401489)"/>
</clipPath>
</defs>
</svg>
